<svg width="244" height="34" viewBox="0 0 244 34" fill="none" xmlns="http://www.w3.org/2000/svg">
<g clip-path="url(#clip0_2_7)">
<path d="M106.411 9.85999C107.209 9.84171 108.001 9.99827 108.733 10.319C109.367 10.5961 109.919 11.0355 110.334 11.594C110.762 12.1801 111.075 12.8437 111.257 13.549C111.463 14.3479 111.565 15.1711 111.558 15.997C111.588 17.5715 111.303 19.1358 110.72 20.5955C110.232 21.8106 109.518 22.9188 108.616 23.8595C107.036 25.4697 104.895 26.3856 102.655 26.4095C101.92 26.4277 101.19 26.2917 100.509 26.01C99.9408 25.7563 99.4511 25.3508 99.0923 24.837C98.7075 24.272 98.442 23.6324 98.3126 22.9585C98.1554 22.1438 98.0795 21.3151 98.0863 20.485C98.0774 18.9812 98.3623 17.4905 98.9246 16.099C99.4124 14.8549 100.107 13.7049 100.979 12.699C101.742 11.8264 102.657 11.1033 103.678 10.5655C104.522 10.1172 105.458 9.87559 106.411 9.85999ZM103.561 25.0155C104.281 25.0186 104.984 24.7861 105.564 24.3525C106.217 23.8702 106.757 23.2495 107.149 22.5335C107.617 21.6688 107.953 20.7375 108.146 19.771C108.398 18.6272 108.519 17.4578 108.507 16.286C108.555 15.0444 108.373 13.8046 107.97 12.631C107.841 12.2251 107.584 11.8734 107.239 11.6294C106.894 11.3853 106.479 11.2625 106.059 11.2795C105.273 11.2885 104.518 11.5912 103.938 12.1295C103.28 12.707 102.746 13.4159 102.37 14.212C101.947 15.0984 101.634 16.035 101.44 17C101.225 18.0198 101.115 19.0596 101.113 20.1025C101.055 21.3468 101.246 22.59 101.674 23.7575C101.818 24.1416 102.078 24.4698 102.417 24.6957C102.756 24.9215 103.156 25.0334 103.561 25.0155Z" fill="#7F7F7F"/>
<path d="M145.319 2.9325H148.932V26.0015H145.319V2.9325Z" fill="white"/>
<path d="M93.5508 19.958V18.9465C93.5696 17.7928 93.3996 16.6438 93.0478 15.5465C92.76 14.6289 92.2891 13.7812 91.6645 13.056C91.0743 12.3876 90.3438 11.8619 89.5267 11.5175C88.6554 11.1519 87.7199 10.9697 86.777 10.982C85.7297 10.9773 84.6902 11.1645 83.7086 11.5345C82.7755 11.8759 81.92 12.405 81.1936 13.09C80.4785 13.7739 79.9081 14.5981 79.5169 15.5125C79.283 16.0561 79.1169 16.6272 79.0223 17.2125H78.1672V19.958H79.0055C79.0943 20.6051 79.2692 21.237 79.5253 21.8365C79.9165 22.7509 80.4869 23.5751 81.202 24.259C81.9284 24.944 82.7839 25.4731 83.717 25.8145C84.6986 26.1845 85.7381 26.3717 86.7853 26.367C87.9114 26.3686 89.0262 26.1403 90.0633 25.6955C91.1786 25.1926 92.1526 24.4155 92.8969 23.4345L90.3064 21.454C89.8518 22.015 89.3077 22.4948 88.6968 22.8735C88.0046 23.2684 87.2186 23.4625 86.4249 23.4345C85.4814 23.4493 84.5633 23.124 83.8344 22.5165C83.4684 22.1973 83.1687 21.8074 82.9528 21.3696C82.7369 20.9318 82.6091 20.4549 82.5769 19.9665H93.5927L93.5508 19.958ZM82.5349 17.2125C82.6193 16.2527 83.028 15.352 83.6919 14.6625C84.0364 14.3375 84.4416 14.0858 84.8837 13.9223C85.3257 13.7588 85.7956 13.6868 86.2656 13.7105C87.2438 13.6523 88.205 13.9883 88.9399 14.6455C89.2689 14.9791 89.5271 15.3774 89.6987 15.8159C89.8702 16.2545 89.9515 16.7239 89.9375 17.1955H82.5349V17.2125Z" fill="#D91100"/>
<path d="M223.36 11.3475V19.346C223.363 19.8199 223.301 20.292 223.176 20.7485C223.066 21.1831 222.866 21.5889 222.589 21.9385C222.318 22.2985 221.967 22.5896 221.566 22.7885C221.09 23.0067 220.571 23.1113 220.049 23.0945C219.515 23.1304 218.987 22.9738 218.556 22.6525C218.208 22.3606 217.94 21.9831 217.777 21.556C217.606 21.1061 217.498 20.6339 217.458 20.1535C217.416 19.652 217.399 19.2015 217.399 18.7935V10.982H205.872C207.403 11.399 208.726 12.3774 209.586 13.7275H213.778V20.5955C213.775 21.3272 213.868 22.0562 214.054 22.763C214.217 23.4512 214.526 24.0952 214.96 24.65C215.407 25.2098 215.983 25.6503 216.636 25.9335C217.409 26.2696 218.244 26.432 219.084 26.4095C220.101 26.4639 221.108 26.1804 221.952 25.602C222.614 25.0992 223.148 24.4436 223.511 23.6895H223.57V26.044H227.007V11.3475H223.36Z" fill="white"/>
<path d="M191.218 14.8155C191.047 14.0947 190.737 13.4156 190.304 12.818C189.888 12.2401 189.334 11.7781 188.694 11.475C187.928 11.1273 187.094 10.9588 186.255 10.982C185.281 10.9564 184.317 11.1847 183.455 11.645C182.625 12.13 181.948 12.8431 181.501 13.702C180.755 11.8915 179.255 10.982 176.983 10.982C175.961 10.9381 174.953 11.2369 174.116 11.832C173.453 12.3042 172.92 12.9388 172.565 13.6765H172.506V10.982H162.681C163.34 11.184 163.945 11.5365 164.45 12.0124C164.954 12.4883 165.344 13.075 165.59 13.7275H169.094V26.0015H172.699V18.003C172.696 17.5291 172.758 17.0571 172.883 16.6005C172.993 16.1659 173.193 15.7601 173.47 15.4105C173.741 15.0505 174.091 14.7594 174.493 14.5605C174.984 14.3446 175.518 14.2485 176.052 14.28C176.409 14.2463 176.769 14.3023 177.099 14.4431C177.43 14.584 177.721 14.8053 177.947 15.0875C178.36 15.7363 178.559 16.5011 178.517 17.272V26.0015H182.13V18.0625C182.132 17.5956 182.188 17.1305 182.298 16.677C182.4 16.2389 182.582 15.8238 182.834 15.453C183.087 15.0985 183.417 14.8077 183.799 14.603C184.243 14.3773 184.735 14.2664 185.232 14.28C185.689 14.264 186.142 14.3572 186.557 14.552C186.896 14.7226 187.185 14.9806 187.395 15.3C187.602 15.6386 187.744 16.0134 187.814 16.405C187.896 16.8306 187.935 17.2634 187.932 17.697V26.0015H191.545V17.272C191.529 16.4431 191.42 15.6189 191.218 14.8155Z" fill="white"/>
<path d="M191.645 13.7275H202.762V10.982H188.904C189.537 11.1972 190.114 11.5565 190.589 12.0324C191.064 12.5082 191.425 13.0881 191.645 13.7275Z" fill="white"/>
<path d="M71.2592 10.982C70.5376 10.981 69.819 11.0753 69.1214 11.2625C68.4525 11.4283 67.819 11.7164 67.2519 12.1125C66.7072 12.5002 66.257 13.009 65.9357 13.6C65.5912 14.2526 65.4207 14.9851 65.4411 15.725C65.394 16.4991 65.5939 17.268 66.0112 17.918C66.3846 18.4449 66.8797 18.871 67.4531 19.159C68.0505 19.4572 68.6851 19.6717 69.3394 19.7965C70.0101 19.9325 70.6388 20.0685 71.2173 20.2215C71.7244 20.3463 72.2103 20.5468 72.6593 20.8165C72.9482 21.021 73.1468 21.332 73.2126 21.6831C73.2784 22.0341 73.2061 22.3973 73.0114 22.695C72.8532 22.9117 72.6536 23.0938 72.4245 23.2305C72.1803 23.3759 71.914 23.4793 71.6365 23.5365C71.3611 23.5978 71.0801 23.6291 70.7981 23.63C70.1177 23.6525 69.4452 23.4754 68.8616 23.12C68.3033 22.7673 67.8003 22.3318 67.3693 21.828L64.9633 24.1145C65.6307 24.9211 66.4992 25.5317 67.4783 25.8825C68.4779 26.2212 69.5263 26.3879 70.5802 26.3755C71.33 26.3734 72.0775 26.2907 72.8102 26.129C73.5168 25.9805 74.194 25.7133 74.8138 25.3385C75.4137 24.9776 75.9197 24.4763 76.2893 23.8765C76.6771 23.2081 76.8691 22.4415 76.8426 21.6665C76.8934 20.8729 76.7001 20.0829 76.2893 19.4055C75.9156 18.8658 75.4215 18.4231 74.8473 18.1135C74.2449 17.791 73.6018 17.5536 72.9359 17.408L71.0664 17C70.5669 16.8868 70.0827 16.7127 69.6245 16.4815C69.443 16.3955 69.291 16.2565 69.188 16.0823C69.0849 15.9082 69.0355 15.7068 69.046 15.504C69.046 14.1525 70.7227 13.7615 71.1838 13.7615H79.7852C80.6451 12.408 81.9726 11.4289 83.5074 11.016L71.2592 10.982Z" fill="#D91100"/>
<path d="M144.455 10.982H137.748V13.532H137.681C137.198 12.6737 136.462 11.99 135.577 11.577C134.679 11.1654 133.704 10.9565 132.718 10.965C131.691 10.9486 130.671 11.1513 129.725 11.56C128.867 11.9406 128.098 12.5008 127.468 13.2039C126.838 13.907 126.362 14.7372 126.07 15.64C125.739 16.6101 125.574 17.6308 125.584 18.6575C125.58 19.6581 125.754 20.6513 126.095 21.59C126.421 22.4734 126.917 23.2824 127.554 23.97C128.231 24.6774 129.044 25.2369 129.942 25.6141C130.84 25.9912 131.805 26.178 132.777 26.163C133.686 26.1619 134.586 25.98 135.426 25.6275C136.246 25.3074 136.961 24.7595 137.488 24.0465H137.547V25.1175C137.554 25.7903 137.478 26.4613 137.321 27.115C137.186 27.6788 136.929 28.2047 136.566 28.6535C136.188 29.1033 135.703 29.4484 135.158 29.6565C134.459 29.923 133.716 30.05 132.97 30.0305C132.038 30.0477 131.114 29.8591 130.262 29.478C129.435 29.0812 128.674 28.5564 128.007 27.9225L125.844 30.9145C126.808 31.7899 127.954 32.4348 129.197 32.8015C130.442 33.1536 131.728 33.3281 133.02 33.32C134.26 33.3489 135.494 33.1413 136.658 32.708C137.613 32.3428 138.474 31.7613 139.173 31.008C139.864 30.2265 140.372 29.2966 140.657 28.288C140.996 27.1239 141.16 25.9147 141.144 24.701V13.7275H144.43L144.455 10.982ZM137.438 20.332C137.26 20.8418 136.974 21.306 136.6 21.692C136.213 22.0798 135.754 22.386 135.25 22.593C134.679 22.8207 134.07 22.9333 133.456 22.9245C132.881 22.9277 132.311 22.815 131.779 22.593C131.273 22.3822 130.814 22.07 130.43 21.675C130.047 21.293 129.744 20.8361 129.541 20.332C129.326 19.8097 129.218 19.2488 129.222 18.683C129.217 18.073 129.325 17.4675 129.541 16.898C129.733 16.3858 130.029 15.9204 130.41 15.5322C130.792 15.1441 131.25 14.8419 131.754 14.6455C132.309 14.4247 132.902 14.315 133.498 14.3225C134.067 14.2813 134.638 14.3641 135.173 14.5652C135.708 14.7663 136.194 15.0811 136.599 15.4885C137.004 15.8959 137.318 16.3864 137.521 16.9271C137.723 17.4678 137.81 18.0463 137.773 18.6235C137.763 19.1949 137.649 19.7595 137.438 20.2895V20.332Z" fill="white"/>
<path d="M165.338 16.371C165.31 15.893 165.243 15.4182 165.137 14.9515C165.023 14.4476 164.842 13.9616 164.6 13.5065C164.336 13.0114 163.97 12.5795 163.527 12.24C163.01 11.8364 162.425 11.5312 161.8 11.339C160.961 11.0814 160.087 10.9609 159.21 10.982H149.82V13.7275H158.824C159.667 13.6929 160.499 13.9343 161.197 14.416C161.509 14.6549 161.757 14.9689 161.92 15.3295C162.082 15.69 162.153 16.086 162.127 16.4815V16.8725H161.214C160.61 16.8725 159.964 16.8725 159.285 16.9235C158.605 16.9518 157.928 17.0227 157.257 17.136C156.595 17.2438 155.944 17.4117 155.312 17.6375C154.708 17.8436 154.142 18.1479 153.635 18.5385C153.186 18.9225 152.826 19.4011 152.579 19.941C152.28 20.5743 152.136 21.2711 152.159 21.9725C152.146 22.6405 152.299 23.301 152.604 23.8935C152.898 24.4317 153.304 24.8986 153.794 25.262C154.296 25.6485 154.865 25.9368 155.471 26.112C156.103 26.2984 156.758 26.3928 157.416 26.3925C158.33 26.4045 159.235 26.2099 160.065 25.823C160.886 25.4269 161.576 24.798 162.052 24.0125H162.136V26.027H165.388V17.578C165.363 17.2295 165.355 16.83 165.338 16.371ZM161.901 20.264C161.925 20.7132 161.859 21.1626 161.706 21.5849C161.553 22.0072 161.317 22.3936 161.012 22.7205C160.635 23.0469 160.198 23.2946 159.726 23.4492C159.254 23.6038 158.757 23.6624 158.263 23.6215C157.958 23.6182 157.654 23.5811 157.357 23.511C157.059 23.4491 156.774 23.3309 156.519 23.1625C156.287 23.0043 156.088 22.8022 155.932 22.5675C155.779 22.3116 155.7 22.0168 155.706 21.7175C155.696 21.4798 155.743 21.2434 155.844 21.0286C155.945 20.8138 156.096 20.6272 156.284 20.485C156.702 20.1697 157.178 19.9414 157.684 19.8135C158.26 19.6568 158.85 19.56 159.445 19.5245C160.065 19.482 160.627 19.465 161.121 19.465H161.867L161.901 20.264Z" fill="white"/>
<path d="M209.804 15.5125C209.411 14.594 208.836 13.767 208.115 13.0827C207.394 12.3985 206.542 11.8716 205.612 11.5345C203.631 10.7979 201.457 10.7979 199.476 11.5345C198.542 11.8758 197.687 12.4049 196.961 13.09C196.768 13.2877 196.589 13.4978 196.424 13.719C197.631 13.6765 202.049 13.6085 204.246 14.62H204.296C204.801 14.8553 205.256 15.1872 205.637 15.5975C206.007 16.0028 206.293 16.4799 206.476 17C206.856 18.0655 206.856 19.2325 206.476 20.298C206.293 20.8181 206.007 21.2952 205.637 21.7005C205.256 22.1108 204.801 22.4427 204.296 22.678C203.484 23.0572 202.574 23.1668 201.696 22.9913C200.819 22.8158 200.018 22.3641 199.408 21.7005C199.039 21.2949 198.754 20.8179 198.57 20.298C198.19 19.2325 198.19 18.0655 198.57 17C198.754 16.4801 199.039 16.0031 199.408 15.5975C199.785 15.1856 200.238 14.8534 200.741 14.62H200.8C199.154 14.4535 197.498 14.4052 195.846 14.4755C195.627 14.8 195.439 15.1443 195.284 15.504C194.874 16.5065 194.663 17.5809 194.663 18.666C194.663 19.7511 194.874 20.8255 195.284 21.828C195.675 22.7424 196.245 23.5666 196.961 24.2505C197.687 24.9355 198.542 25.4646 199.476 25.806C201.457 26.5426 203.631 26.5426 205.612 25.806C206.542 25.4689 207.394 24.942 208.115 24.2577C208.836 23.5735 209.411 22.7465 209.804 21.828C210.221 20.8398 210.432 19.7748 210.424 18.7C210.44 17.6051 210.229 16.5191 209.804 15.5125Z" fill="white"/>
<path d="M226.973 10.982H223.36V12.359H226.973V10.982Z" fill="white"/>
<path d="M58.5751 10.982V19.346C58.577 19.8193 58.5178 20.2908 58.399 20.7485C58.2826 21.1805 58.0832 21.5849 57.8122 21.9385C57.5391 22.2966 57.1894 22.5873 56.7894 22.7885C56.3103 23.0065 55.7885 23.1111 55.2636 23.0945C54.7331 23.1291 54.2075 22.9726 53.7798 22.6525C53.4318 22.3586 53.161 21.9819 52.9917 21.556C52.8196 21.1069 52.7151 20.6341 52.6815 20.1535C52.6396 19.652 52.6145 19.2015 52.6145 18.7935V10.982H41.0789C42.6126 11.3971 43.9394 12.3757 44.8011 13.7275H48.9928V20.5955C48.9869 21.3269 49.0771 22.0558 49.2611 22.763C49.4259 23.4538 49.741 24.0985 50.1833 24.65C50.6301 25.2105 51.2059 25.6512 51.86 25.9335C52.6355 26.2693 53.4733 26.4316 54.3163 26.4095C55.3305 26.4633 56.3344 26.1797 57.1751 25.602C57.8258 25.0829 58.3435 24.4122 58.6841 23.647H58.7428V26.0015H62.1716V10.982H58.5751Z" fill="#D91100"/>
<path d="M45.0191 15.5125C44.6279 14.5981 44.0574 13.7739 43.3424 13.09C42.616 12.405 41.7605 11.8759 40.8274 11.5345C39.9352 11.2009 38.9947 11.02 38.0441 10.999H0C0.066211 12.0084 0.510026 12.9541 1.24078 13.6429C1.97154 14.3316 2.9341 14.7116 3.93183 14.705C6.12829 14.6285 22.2496 13.7445 26.215 13.7445H34.1457C35.9865 13.7369 37.8151 14.0473 39.5531 14.6625C40.0605 14.8935 40.5167 15.226 40.8944 15.64C41.261 16.0479 41.5458 16.5242 41.7328 17.0425C42.1131 18.108 42.1131 19.275 41.7328 20.3405C41.5458 20.8587 41.261 21.3351 40.8944 21.743C40.2747 22.377 39.4813 22.8075 38.6173 22.9788C37.7533 23.15 36.8584 23.0541 36.0488 22.7035C35.5422 22.4711 35.0862 22.1388 34.7074 21.726C34.3374 21.3207 34.0523 20.8436 33.8691 20.3235C33.4887 19.258 33.4887 18.091 33.8691 17.0255C34.0523 16.5054 34.3374 16.0283 34.7074 15.623C35.0862 15.2102 35.5422 14.8779 36.0488 14.6455H36.1242C34.471 14.4609 32.8069 14.3956 31.1445 14.45C30.9186 14.801 30.7169 15.1673 30.5409 15.5465C30.1233 16.5432 29.9148 17.6172 29.9289 18.7C29.9137 19.7857 30.1221 20.8626 30.5409 21.862C30.9314 22.7822 31.5054 23.6105 32.2267 24.2951C32.9481 24.9797 33.8012 25.5056 34.7326 25.84C36.7165 26.5765 38.8937 26.5765 40.8777 25.84C41.8108 25.4986 42.6663 24.9695 43.3927 24.2845C44.1077 23.6006 44.6782 22.7764 45.0694 21.862C45.479 20.8595 45.6898 19.7851 45.6898 18.7C45.6898 17.6149 45.479 16.5405 45.0694 15.538L45.0191 15.5125Z" fill="#D91100"/>
<path d="M243.958 10.982H239.012C238.108 10.9664 237.219 11.2111 236.447 11.6875C235.712 12.1714 235.13 12.8588 234.77 13.668H234.711V10.982H227.711V13.7275H231.064V26.0015H234.678V18.156C234.691 17.8461 234.736 17.5384 234.812 17.238C234.916 16.8029 235.098 16.3909 235.348 16.0225C235.658 15.579 236.059 15.2081 236.522 14.9345C237.146 14.5937 237.851 14.432 238.559 14.467C240.11 14.467 240.957 14.892 241.728 14.688C244.184 14.008 243.958 10.982 243.958 10.982Z" fill="white"/>
<path d="M12.4745 13.1665V12.9965V4.3945H8.67685V13.4895L12.4745 13.1665Z" fill="#FF0000"/>
<path d="M8.67685 15.2745V26.0015H12.4745V16.4815V14.9515L8.67685 15.2745Z" fill="#D91100"/>
<path d="M26.2234 22.542V14.4925L22.4341 14.552V16.4815V22.542V26.0015H26.2234H27.1791V22.542H26.2234Z" fill="#D91100"/>
<path d="M26.2234 4.3945H22.4341V12.9965V13.787L26.2234 13.736V4.3945Z" fill="#D91100"/>
<path d="M124.955 0C124.161 0.00997957 123.376 0.183487 122.65 0.51C121.839 0.86606 121.092 1.35417 120.437 1.955C119.732 2.59973 119.129 3.35091 118.651 4.182C118.142 5.06466 117.801 6.03629 117.645 7.0465L117.108 10.2935H114.853C114.467 10.2935 114.216 10.71 114.099 11.5345H116.907C116.907 11.5345 115.616 23.987 113.445 32.3C113.373 32.6177 113.21 32.9065 112.975 33.1291C112.741 33.3518 112.446 33.4982 112.129 33.5495C114.484 34.714 115.935 33.354 116.429 31.6285C117.829 26.656 119.699 11.628 119.699 11.628L121.501 11.7385C122.147 11.7895 122.767 11.866 123.371 11.9595C123.416 11.3791 123.537 10.8073 123.731 10.2595H119.883L120.093 8.806C120.336 7.3185 120.579 6.1285 120.814 5.2275C121.007 4.52515 121.256 3.84002 121.56 3.179C121.727 2.80176 121.98 2.4698 122.298 2.21C124.075 0.7395 126.858 2.55 125.928 5.95C129.507 4.6665 128.107 0 124.955 0Z" fill="#7F7F7F"/>
</g>
<defs>
<clipPath id="clip0_2_7">
<rect width="244" height="34" fill="white"/>
</clipPath>
</defs>
</svg>
